<?xml version="1.0" encoding="iso-8859-1"?>
<!-- Generator: Adobe Illustrator 19.0.0, SVG Export Plug-In . SVG Version: 6.00 Build 0)  -->
<svg version="1.1" id="Layer_1" xmlns="http://www.w3.org/2000/svg" xmlns:xlink="http://www.w3.org/1999/xlink" x="0px" y="0px"
	 viewBox="0 0 490.407 490.407" style="enable-background:new 0 0 490.407 490.407;" xml:space="preserve">
<g>
	<path style="fill:#FBB03B;" d="M428.598,293.619h-64.931c-12.451,30.43-36.698,55.276-66.83,68.476v65.354
		C361.456,409.498,411.653,358.531,428.598,293.619z M396.17,302.986l13.77,6.149c-3.892,8.708-8.531,17.191-13.796,25.214
		l-12.607-8.277C388.357,318.726,392.609,310.957,396.17,302.986z M317.742,400.522l-6.031-13.822
		c21.447-9.359,41.071-23.557,56.756-41.053l11.23,10.066C362.58,374.808,341.159,390.305,317.742,400.522z"/>
	<path style="fill:#FBB03B;" d="M196.642,427.807v-65.149c-15.584-6.616-29.63-16.324-41.344-28.314v76.776
		C168.231,418.224,182.082,423.868,196.642,427.807z"/>
	<path style="fill:#FBB03B;" d="M296.836,63.977v65.336c28.899,12.59,52.004,35.414,64.96,64.111h65.591
		C409.339,130.74,359.654,81.483,296.836,63.977z"/>
	<path style="fill:#FBB03B;" d="M196.642,128.751V63.614c-14.56,3.94-28.408,9.592-41.344,16.699v76.598
		C166.971,144.977,180.985,135.365,196.642,128.751z"/>
	<path style="fill:#F7931E;" d="M155.298,156.911V80.313c-43.468,23.881-76.503,64.374-90.518,113.111h65.585
		C136.537,179.756,145.008,167.431,155.298,156.911z"/>
	<path style="fill:#F7931E;" d="M155.298,411.121v-76.776c-11.391-11.659-20.577-25.477-26.811-40.725H63.576
		C76.832,344.313,110.524,386.529,155.298,411.121z"/>
	<rect x="94.75" y="208.505" style="fill:#29ABE2;" width="53.015" height="70.033"/>
	<rect x="41.649" y="208.505" style="fill:#1F80AA;" width="53.1" height="70.033"/>
	<rect x="399.722" y="208.505" style="fill:#29ABE2;" width="52.107" height="70.033"/>
	<rect x="345.717" y="208.505" style="fill:#1F80AA;" width="54.005" height="70.033"/>
	<rect x="249.203" y="38.432" style="fill:#29ABE2;" width="32.553" height="106.112"/>
	<rect x="211.723" y="38.432" style="fill:#1F80AA;" width="37.48" height="106.112"/>
	<rect x="249.203" y="345.29" style="fill:#29ABE2;" width="32.553" height="106.112"/>
	<rect x="211.723" y="345.29" style="fill:#1F80AA;" width="37.48" height="106.112"/>
	<path d="M196.642,427.807c-14.559-3.939-28.41-9.583-41.344-16.687c-44.773-24.591-78.466-66.807-91.722-117.502h-15.55
		c17.76,73.709,75.312,131.505,148.616,149.769V427.807z"/>
	<path d="M428.598,293.619c-16.945,64.912-67.142,115.879-131.762,133.831v15.613C369.842,424.38,426.513,366.9,444.145,293.62
		h-15.547V293.619z"/>
	<path d="M466.91,221.686v-28.262h-23.875C424.22,122.391,367.986,66.611,296.836,48.362V23.351h-24.06
		C271.313,10.587,260.197,0,246.741,0c-13.456,0-24.572,10.587-26.036,23.351h-24.064v24.683
		C124.814,65.93,68.082,121.817,49.133,193.424H26.568v25.589C12.376,219.3,0.114,231.28,0.114,245.973s12.262,26.673,26.454,26.96
		v20.686h21.458h15.55h64.912c6.233,15.249,15.42,29.066,26.811,40.725c11.714,11.99,25.76,21.698,41.344,28.314v65.149v15.58
		v23.095h23.985c1.063,14.681,12.366,23.925,26.114,23.925s25.051-9.244,26.114-23.925h23.982v-23.421V427.45v-65.354
		c30.132-13.2,54.38-38.046,66.83-68.476h64.931h15.547h22.765v-19.76c15.192-1.234,23.382-12.461,23.382-26.087
		S482.102,222.92,466.91,221.686z M26.568,257.402c-7.841-0.218-10.93-5.253-10.93-11.429s3.089-11.211,10.93-11.429V257.402z
		 M451.829,278.538h-52.107h-54.005v-70.033h54.005h52.107V278.538z M249.203,451.402h-37.48V345.29h37.48h32.553v106.112H249.203z
		 M296.836,345.41v-15.2H196.642v15.859c-22.503-11.15-40.863-29.763-51.672-52.45h17.876V193.424h-15.693
		c11.02-20.866,28.33-37.685,49.489-48.097v14.298h100.195v-13.642c20.597,10.471,37.41,27.031,48.184,47.442h-14.385V293.62h16.55
		C336.596,315.827,318.741,334.19,296.836,345.41z M249.203,38.432h32.553v106.112h-32.553h-37.48V38.432H249.203z M361.797,193.424
		c-12.957-28.696-36.061-51.521-64.96-64.111V63.977c62.818,17.506,112.503,66.762,130.551,129.447L361.797,193.424L361.797,193.424
		z M155.298,80.313c12.935-7.107,26.784-12.759,41.344-16.699v65.137c-15.656,6.614-29.67,16.226-41.344,28.16
		c-10.29,10.52-18.761,22.845-24.934,36.513H64.779C78.795,144.687,111.83,104.194,155.298,80.313z M41.649,208.505h53.1h53.015
		v70.033H94.75h-53.1L41.649,208.505L41.649,208.505z M246.741,15.081c5.343,0,9.814,2.372,10.879,8.27h-21.758
		C236.927,17.453,241.398,15.081,246.741,15.081z M246.741,475.327c-5.51,0-10.083-2.533-10.959-8.844h21.919
		C256.824,472.794,252.251,475.327,246.741,475.327z M466.91,258.658v-21.772c5.921,1.055,8.301,5.534,8.301,10.886
		C475.211,253.125,472.831,257.603,466.91,258.658z"/>
	<path style="fill:#FFFFFF;" d="M311.711,386.701l6.031,13.822c23.417-10.217,44.838-25.714,61.955-44.808l-11.23-10.066
		C352.783,363.144,333.158,377.341,311.711,386.701z"/>
	<path style="fill:#FFFFFF;" d="M409.94,309.134l-13.77-6.149c-3.56,7.971-7.813,15.74-12.632,23.085l12.607,8.277
		C401.409,326.325,406.048,317.842,409.94,309.134z"/>
</g>
<g>
</g>
<g>
</g>
<g>
</g>
<g>
</g>
<g>
</g>
<g>
</g>
<g>
</g>
<g>
</g>
<g>
</g>
<g>
</g>
<g>
</g>
<g>
</g>
<g>
</g>
<g>
</g>
<g>
</g>
</svg>
